<?xml version="1.0" encoding="UTF-8"?>
<svg width="16px" height="16px" version="1.1" viewBox="0 0 16 16" xmlns="http://www.w3.org/2000/svg" xmlns:cc="http://creativecommons.org/ns#" xmlns:dc="http://purl.org/dc/elements/1.1/" xmlns:rdf="http://www.w3.org/1999/02/22-rdf-syntax-ns#" xmlns:xlink="http://www.w3.org/1999/xlink">
<title>ToastIcon</title>
<defs>
<linearGradient id="a" x1="4.6964" x2="12.389" y1="3.5697" y2="12.789" gradientTransform="translate(-.37164 -.13049)" gradientUnits="userSpaceOnUse">
<stop stop-color="#009500" offset="0"/>
<stop stop-color="#0f0" stop-opacity=".99846" offset="1"/>
</linearGradient>
</defs>
<metadata>
<rdf:RDF>
<cc:Work rdf:about="">
<dc:format>image/svg+xml</dc:format>
<dc:type rdf:resource="http://purl.org/dc/dcmitype/StillImage"/>
<dc:title>ToastIcon</dc:title>
<cc:license rdf:resource=""/>
<dc:creator>
<cc:Agent>
<dc:title>rares45</dc:title>
</cc:Agent>
</dc:creator>
</cc:Work>
</rdf:RDF>
</metadata>
<g>
<g fill="url(#a)" aria-label="T">
<path d="m3.7755 2.8152h8.4489v1.1372h-3.5455v8.8503h-1.358v-8.8503h-3.5455z" fill="url(#a)" stroke-width=".34251"/>
</g>
<g fill="#00a100" stroke-width=".26458" aria-label="style">
<path d="m9.994 11.486q0.039511 0.03387 0.028222 0.06209-0.022577 0.05362-0.070555 0.04233-0.056444-0.02258-0.12418 0-0.11289 0.03669-0.18909 0.08185 0.053622 0.03387 0.11289 0.05362 0.062089 0.01975 0.11289 0.0508 0.11853 0.06209 0.14676 0.16933-0.0056 0.03387-0.019755 0.0508-0.12136 0.08467-0.31044 0.12418-0.18344 0.03951-0.33584 0.0085-0.047978-0.02258-0.036689-0.06491 0.011289-0.03951 0.059267-0.04515 0.18062 0.03104 0.41204-0.03951 0.067733-0.01976 0.10724-0.04798-0.047978-0.03387-0.10724-0.05644-0.059267-0.02258-0.11571-0.04798-0.053622-0.02822-0.095956-0.06491-0.039511-0.03669-0.0508-0.1016-0.00282-0.03951 0.0254-0.06209 0.28222-0.17498 0.45156-0.11289z" style="font-variant-caps:normal;font-variant-east-asian:normal;font-variant-ligatures:normal;font-variant-numeric:normal"/>
<path d="m10.325 11.517q-0.0508 0.01411-0.12136 0.03387-0.05645 0.01129-0.07056-0.03669t0.03387-0.06773q0.05362-0.01975 0.18062-0.0508 0.01411-0.1016 0.04798-0.21449 0.03669-0.11289 0.05362-0.19473-0.0056-0.01129 0.0028-0.04233 0.0085-0.03104 0.01411-0.04798 0.0085-0.01693 0.0254-0.02258 0.01693-0.0085 0.03669-0.0056 0.04233 0.01129 0.04233 0.05927h0.0028l-0.0056 0.01129q-0.01693 0.1016-0.04515 0.20038-0.0254 0.09878-0.04798 0.19756l-0.0085 0.03387 0.1778-0.03387q0.02822-0.0028 0.04516 0.01129 0.01693 0.01411 0.01975 0.03387 0.0028 0.01976-0.01129 0.03951-0.01129 0.01976-0.05644 0.02822-0.14676 0.02822-0.19756 0.03951-0.03105 0.17216-0.07056 0.33867-0.03669 0.16369-0.11289 0.32456-0.03387 0.04516-0.07338 0.02258t-0.02822-0.07056q0.06773-0.14393 0.1016-0.28787 0.03669-0.14676 0.06491-0.29916z" style="font-variant-caps:normal;font-variant-east-asian:normal;font-variant-ligatures:normal;font-variant-numeric:normal"/>
<path d="m11.246 12.202q0.07902-0.03669 0.1016 0.01411 0.02258 0.04798-0.02822 0.0762-0.06209 0.02822-0.13547 0.07338-0.09878 0.24271-0.16651 0.33584-0.06773 0.09596-0.11853 0.14393-0.04798 0.0508-0.09031 0.06773-0.04516 0.01975-0.0762 0.01129-0.03105-0.0085-0.05927-0.02822-0.06773-0.0508-0.05644-0.09878 0.01975-0.11007 0.0762-0.1778 0.05927-0.06773 0.13264-0.12982 0.14676-0.12136 0.27093-0.20038 0.04516-0.10442 0.13547-0.37818-0.08749 0.11289-0.19473 0.16369-0.07056 0.03105-0.13829-0.02258-0.05645-0.04515-0.07056-0.12982l-0.0028-0.04233q0-0.01411-0.0028-0.0254 0-0.01129 0.0028-0.02822l0.0028-0.04516q0.01129-0.09878 0.04233-0.18909 0.0254-0.04798 0.06773-0.03387 0.04515 0.01411 0.03951 0.06491-0.0085 0.02258-0.01411 0.04798-0.0056 0.0254-0.01129 0.04515-0.0028 0.01976-0.0056 0.03387 0 0.01411-0.0028 0.0254-0.0028 0.0085-0.0028 0.01975 0 0.0085-0.0056 0.06491-0.0028 0.05645 0.01693 0.09031 0.02258 0.03387 0.05927 0.01693 0.03669-0.01976 0.08467-0.0762t0.09313-0.11853q0.04798-0.06209 0.08749-0.11853 0.04233-0.05644 0.06773-0.0762 0.02822-0.01975 0.05644-0.01129 0.02822 0.0056 0.03951 0.04516 0.0056 0.09596-0.13264 0.43744-0.03104 0.0762-0.04233 0.1016t-0.01411 0.03387q0 0.0085-0.0056 0.01693zm-0.47131 0.60396q0.11571-0.08467 0.23989-0.33302-0.25682 0.1778-0.2794 0.31327 0.0056 0.0056 0.01129 0.01129 0.01693 0.01975 0.01975 0.01693z" style="font-variant-caps:normal;font-variant-east-asian:normal;font-variant-ligatures:normal;font-variant-numeric:normal"/>
<path d="m11.516 12.064q-0.01129-0.03951 0.0056-0.05644 0.01411-0.01976 0.03387-0.02258 0.01129-0.01693 0.02822-0.04515t0.03387-0.05645q0.09878-0.15804 0.18627-0.31327 0.08749-0.15522 0.16933-0.28504 0.01975-0.04798 0.04233-0.08184 0.01693-0.03951 0.02822-0.0762 0.01411-0.03951 0.03387-0.0762 0.02258-0.03951 0.05927-0.03104 0.03669 0.0056 0.0508 0.04516-0.0085 0.08184-0.06773 0.18062-0.0056 0.01411-0.01411 0.02822-0.0056 0.01411-0.01693 0.03387l-0.02258 0.04516q-0.16933 0.33867-0.15804 0.62089 0.0056 0.09596 0.03669 0.18062 0.01975 0.05362-0.03105 0.0762-0.04798 0.02258-0.07338-0.03387-0.06773-0.18062-0.02822-0.41769-0.01975 0.03669-0.05927 0.09878-0.01411 0.02258-0.03104 0.05644-0.01693 0.03387-0.03387 0.06773-0.04516 0.08185-0.09596 0.09878-0.05362 0.0085-0.0762-0.03669z" style="font-variant-caps:normal;font-variant-east-asian:normal;font-variant-ligatures:normal;font-variant-numeric:normal"/>
<path d="m12.898 11.35q0.03105 0.02258 0.0254 0.08184-0.0028 0.05644-0.0508 0.10724-0.04516 0.0508-0.11007 0.08184-0.09031 0.04233-0.27376 0.06773-0.1524 0.17216-0.0762 0.23707 0.07056 0.06491 0.31327 0.03104 0.17498-0.02258 0.32173-0.07056 0.0508-0.0056 0.06491 0.03951 0.01411 0.04233-0.03387 0.06773-0.33867 0.09596-0.56727 0.0762-0.14393-0.01411-0.19191-0.08185-0.04516-0.06773-0.0254-0.16087 0.01976-0.09313 0.09031-0.19191 0.07056-0.09878 0.16087-0.17498 0.09031-0.0762 0.18627-0.11007 0.09596-0.03669 0.16651 0zm-0.1016 0.09878q-0.0508 0.01129-0.16651 0.10442 0.11289-0.03387 0.16651-0.10442z" style="font-variant-caps:normal;font-variant-east-asian:normal;font-variant-ligatures:normal;font-variant-numeric:normal"/>
</g>
</g>
</svg>
