<?xml version="1.0" encoding="UTF-8"?>
<svg width="16mm" height="16mm" version="1.1" viewBox="0 0 16 16" xmlns="http://www.w3.org/2000/svg" xmlns:cc="http://creativecommons.org/ns#" xmlns:dc="http://purl.org/dc/elements/1.1/" xmlns:rdf="http://www.w3.org/1999/02/22-rdf-syntax-ns#">
<title>ToastIcon</title>
<metadata>
<rdf:RDF>
<cc:Work rdf:about="">
<dc:format>image/svg+xml</dc:format>
<dc:type rdf:resource="http://purl.org/dc/dcmitype/StillImage"/>
<dc:title>ToastIcon</dc:title>
<cc:license rdf:resource=""/>
<dc:creator>
<cc:Agent>
<dc:title>rares45</dc:title>
</cc:Agent>
</dc:creator>
</cc:Work>
</rdf:RDF>
</metadata>
<g>
<rect x="2.5825" y="6.0014" width="10.835" height="3.9972" ry="1.473" fill="#f0f0f0"/>
<g stroke-width=".26458" style="font-variant-caps:normal;font-variant-east-asian:normal;font-variant-ligatures:normal;font-variant-numeric:normal" aria-label="Toasts ">
<path d="m5.4688 7.0038v0.23707h-0.61524v1.7187h-0.27376v-1.7187h-0.61524v-0.23707z" style="font-variant-caps:normal;font-variant-east-asian:normal;font-variant-ligatures:normal;font-variant-numeric:normal"/>
<path d="m6.8793 8.2258q0 0.17498-0.0508 0.31609-0.0508 0.14111-0.14393 0.24271-0.090311 0.1016-0.21731 0.15804-0.127 0.053622-0.27658 0.053622t-0.27658-0.053622q-0.127-0.056444-0.22013-0.15804-0.090311-0.1016-0.14111-0.24271-0.0508-0.14111-0.0508-0.31609 0-0.17216 0.0508-0.31327 0.0508-0.14393 0.14111-0.24553 0.093133-0.1016 0.22013-0.15522 0.127-0.056444 0.27658-0.056444t0.27658 0.056444q0.127 0.053622 0.21731 0.15522 0.093133 0.1016 0.14393 0.24553 0.0508 0.14111 0.0508 0.31327zm-0.27376 0q0-0.24836-0.11289-0.39229-0.11007-0.14676-0.30198-0.14676t-0.3048 0.14676q-0.11007 0.14393-0.11007 0.39229t0.11007 0.39511q0.11289 0.14393 0.3048 0.14393t0.30198-0.14393q0.11289-0.14676 0.11289-0.39511z" style="font-variant-caps:normal;font-variant-east-asian:normal;font-variant-ligatures:normal;font-variant-numeric:normal"/>
<path d="m7.7453 8.7705q0.093133 0 0.16369-0.00282 0.073378-0.00564 0.12136-0.016933v-0.43745q-0.028222-0.014111-0.093133-0.022578-0.062089-0.011289-0.1524-0.011289-0.059267 0-0.127 0.00847-0.064911 0.00847-0.12136 0.036689-0.053622 0.0254-0.090311 0.073378-0.036689 0.045155-0.036689 0.12136 0 0.14111 0.090311 0.19756 0.090311 0.053622 0.24553 0.053622zm-0.022578-1.3152q0.15804 0 0.26529 0.042333 0.11007 0.039511 0.17498 0.11571 0.067733 0.073378 0.095956 0.1778 0.028222 0.1016 0.028222 0.22578v0.91722q-0.033867 0.00564-0.095955 0.016933-0.059267 0.00847-0.13547 0.016933-0.0762 0.00847-0.16651 0.014111-0.087489 0.00847-0.17498 0.00847-0.12418 0-0.2286-0.0254-0.10442-0.0254-0.18062-0.079022-0.0762-0.056444-0.11853-0.14676-0.042333-0.090311-0.042333-0.21731 0-0.12136 0.047978-0.20884 0.0508-0.087489 0.13547-0.14111 0.084667-0.053622 0.19756-0.079022 0.11289-0.0254 0.23707-0.0254 0.039511 0 0.081844 0.00564 0.042333 0.00282 0.079022 0.011289 0.039511 0.00564 0.067733 0.011289 0.028222 0.00564 0.039511 0.00847v-0.073378q0-0.064911-0.014111-0.127-0.014111-0.064911-0.0508-0.11289-0.036689-0.0508-0.1016-0.079022-0.062089-0.031044-0.16369-0.031044-0.12982 0-0.2286 0.019756-0.095955 0.016933-0.14393 0.036689l-0.031045-0.21731q0.0508-0.022578 0.16933-0.042333 0.11853-0.022578 0.25682-0.022578z" style="font-variant-caps:normal;font-variant-east-asian:normal;font-variant-ligatures:normal;font-variant-numeric:normal"/>
<path d="m9.0618 8.7705q0.16087 0 0.23707-0.042333 0.079022-0.042333 0.079022-0.13547 0-0.095956-0.0762-0.1524-0.0762-0.056444-0.25118-0.127-0.084667-0.033867-0.16369-0.067733-0.0762-0.036689-0.13264-0.084667-0.056444-0.047978-0.090311-0.11571t-0.033867-0.16651q0-0.19473 0.14393-0.30762 0.14393-0.11571 0.39229-0.11571 0.062089 0 0.12418 0.00847 0.062089 0.00564 0.11571 0.016933 0.053622 0.00847 0.093133 0.019755 0.042333 0.011289 0.064911 0.019756l-0.047977 0.22577q-0.042333-0.022578-0.13264-0.045155-0.090311-0.0254-0.21731-0.0254-0.11007 0-0.19191 0.045155-0.081844 0.042333-0.081844 0.13547 0 0.047978 0.016933 0.084667 0.019756 0.036689 0.056444 0.067733 0.039511 0.028222 0.095956 0.053622 0.056444 0.0254 0.13547 0.053622 0.10442 0.039511 0.18627 0.079022 0.081844 0.036689 0.13829 0.087489 0.059267 0.0508 0.090311 0.12418 0.031045 0.070555 0.031045 0.17498 0 0.2032-0.1524 0.30762-0.14958 0.10442-0.42898 0.10442-0.19473 0-0.3048-0.033867-0.11007-0.031044-0.14958-0.047978l0.047978-0.22578q0.045156 0.016933 0.14393 0.0508 0.098778 0.033867 0.26247 0.033867z" style="font-variant-caps:normal;font-variant-east-asian:normal;font-variant-ligatures:normal;font-variant-numeric:normal"/>
<path d="m10.223 7.492h0.55598v0.22013h-0.55598v0.67733q0 0.11007 0.01693 0.18344 0.01693 0.070555 0.0508 0.11289 0.03387 0.039511 0.08467 0.056444t0.11853 0.016933q0.11853 0 0.18909-0.0254 0.07338-0.028222 0.1016-0.039511l0.0508 0.21731q-0.03951 0.019756-0.13829 0.047978-0.09878 0.031044-0.22578 0.031044-0.14958 0-0.24836-0.036689-0.09596-0.039511-0.15522-0.11571-0.05927-0.0762-0.084667-0.18627-0.022578-0.11289-0.022578-0.25964v-1.3095l0.26247-0.045156z" style="font-variant-caps:normal;font-variant-east-asian:normal;font-variant-ligatures:normal;font-variant-numeric:normal"/>
<path d="m11.454 8.7705q0.16087 0 0.23707-0.042333 0.07902-0.042333 0.07902-0.13547 0-0.095956-0.0762-0.1524-0.0762-0.056444-0.25118-0.127-0.08467-0.033867-0.16369-0.067733-0.0762-0.036689-0.13264-0.084667-0.05645-0.047978-0.09031-0.11571-0.03387-0.067733-0.03387-0.16651 0-0.19473 0.14393-0.30762 0.14393-0.11571 0.39229-0.11571 0.06209 0 0.12418 0.00847 0.06209 0.00564 0.11571 0.016933 0.05362 0.00847 0.09313 0.019755 0.04233 0.011289 0.06491 0.019756l-0.04798 0.22578q-0.04233-0.022578-0.13264-0.045155-0.09031-0.0254-0.21731-0.0254-0.11007 0-0.19191 0.045155-0.08184 0.042333-0.08184 0.13547 0 0.047978 0.01693 0.084667 0.01975 0.036689 0.05644 0.067733 0.03951 0.028222 0.09596 0.053622 0.05644 0.0254 0.13547 0.053622 0.10442 0.039511 0.18627 0.079022 0.08184 0.036689 0.13829 0.087489 0.05927 0.0508 0.09031 0.12418 0.03104 0.070555 0.03104 0.17498 0 0.2032-0.1524 0.30762-0.14958 0.10442-0.42898 0.10442-0.19473 0-0.3048-0.033867-0.11007-0.031044-0.14958-0.047978l0.04798-0.22578q0.04516 0.016933 0.14393 0.0508 0.09878 0.033867 0.26247 0.033867z" style="font-variant-caps:normal;font-variant-east-asian:normal;font-variant-ligatures:normal;font-variant-numeric:normal"/>
</g>
</g>
</svg>
